<svg xmlns="http://www.w3.org/2000/svg" xmlns:xlink="http://www.w3.org/1999/xlink" width="158" height="158" viewBox="0 0 158 158">
    <defs>
        <circle id="b" cx="50" cy="50" r="50"/>
        <filter id="a" width="200%" height="200%" x="-50%" y="-40%" filterUnits="objectBoundingBox">
            <feOffset dy="10" in="SourceAlpha" result="shadowOffsetOuter1"/>
            <feGaussianBlur in="shadowOffsetOuter1" result="shadowBlurOuter1" stdDeviation="15"/>
            <feColorMatrix in="shadowBlurOuter1" values="0 0 0 0 0 0 0 0 0 0 0 0 0 0 0 0 0 0 0.046705163 0"/>
        </filter>
    </defs>
    <g fill="none" fill-rule="evenodd">
        <g transform="translate(33 23)">
            <use fill="#000" filter="url(#a)" xlink:href="#b"/>
            <use fill="#FFF" xlink:href="#b"/>
        </g>
        <g fill-rule="nonzero" transform="translate(53 43)">
            <path stroke="#000" d="M24.44 48.526c-.842-.146-1.355.184-1.554.382-.254.252-.435.577-.218 1.514.218.938 1.304 1.01 2.754.866.896-.09 1.099-.813.815-1.489a2.079 2.079 0 0 1-1.797-1.273zM37.719 40.599c-.741.126-1.328.472-1.428.953-.169.818 1.184.433 2.15 1.202.967.77 2.681.096 2.681-.336 0-.273-.154-.737-.607-1.14a2.103 2.103 0 0 1-2.796-.68zM9.335 47.898c-.17.818 1.184.433 2.15 1.202.966.77 2.68.096 2.68-.336 0-.433-.386-1.346-1.738-1.731-1.353-.385-2.923.048-3.092.865zM37.702 53.226c-1.21.262-1.766 2.01-1.428 2.284.337.273 1.293.55 2.446-.252 1.153-.803 1.806-2.288 1.275-2.934-.53-.646-1.084.641-2.293.902zM41.798 12.634a1.444 1.444 0 0 1 1.437 1.26c.19-.122 1.486-.971 1.33-1.428-.17-.493-1.064-.385-2.03-1.058-.966-.673-2.186-.252-2.318.48-.1.548-.05.974.301 1.514a1.457 1.457 0 0 1 1.28-.768zM20.606 20.558s-.709 1.642-.288 1.952c.082.06.174.085.277.088.013-.23.03-.465.05-.709a1.454 1.454 0 0 1 1.563-1.318 1.442 1.442 0 0 1 1.33 1.412c.599-.348.9-.99.685-1.46-.31-.679-.714-1.029-1.845-1.303-1.13-.274-1.772 1.338-1.772 1.338z"/>
            <path fill="#000" d="M32.49 37.428c-.179 2.62-1.326 13.7-7.735 22.196l.464.346c7.456-9.905 7.878-23.07 7.884-23.096l-.58-.019s-.006.199-.032.573zM39.936 5.777A55.66 55.66 0 0 0 39.634 0l-.577.06a55.05 55.05 0 0 1 .299 5.717c0 4.362-.523 8.228-1.227 11.46.27-.298.536-.612.788-.945a54.587 54.587 0 0 0 1.019-10.515zM36.785 22.199a42.053 42.053 0 0 1-1.58 4.12 26.954 26.954 0 0 1-.61 1.277l.335.553.02.01c.007-.013 1.34-2.38 2.626-6.534l-.104.08c-.234.175-.463.34-.687.494z"/>
            <ellipse cx="30.332" cy="18.014" stroke="#000" rx="3.261" ry="3.245" transform="rotate(-8.158 30.332 18.014)"/>
            <path stroke="#000" d="M27.653 32.827L24.608 47.37a1.783 1.783 0 0 0 1.388 2.11c.969.2 1.918-.418 2.12-1.383L31 34.324a1.815 1.815 0 0 0 2.371.78l4.297-2.025v6.382c0 .995.811 1.803 1.812 1.803 1 0 1.811-.808 1.811-1.803V30.23a1.812 1.812 0 0 0-2.587-1.63l-3.867 1.823a15.722 15.722 0 0 1-.342-1.199c-2.737 1.357-5.812 1.646-7.336 1.71.138.621.301 1.255.494 1.893zM22.184 20.86a1.158 1.158 0 0 0-1.251 1.054 23.56 23.56 0 0 0-.089 1.937c.006 1.309.133 2.25.481 3.028.177.385.43.741.79 1.003.35.26.794.388 1.187.388h.022c.843-.02 1.44-.395 1.993-.792.425-.318.821-.69 1.182-1.067.067.895.183 1.953.379 3.094 1.378-.043 4.721-.325 7.325-1.752a18.477 18.477 0 0 1-.147-4.26c.675-.34 1.89-1.008 3.241-2.018 2.02-1.515 4.38-3.805 5.587-6.994a1.152 1.152 0 0 0-.679-1.485 1.161 1.161 0 0 0-1.492.675c-.966 2.58-2.99 4.604-4.809 5.96a20.366 20.366 0 0 1-2.367 1.524 16.064 16.064 0 0 1-.82.422l-5.35.763c-.065.01-.127.025-.187.044a1.156 1.156 0 0 0-.786.492l-.021.031a17.811 17.811 0 0 1-1.444 1.797c-.356.384-.742.744-1.067.975a2.285 2.285 0 0 1-.424.247 1.985 1.985 0 0 1-.135-.419c-.082-.362-.14-.914-.14-1.656 0-.496.025-1.076.08-1.747a1.156 1.156 0 0 0-1.059-1.245zM16.866 38.019c-.108.817.759.432 1.378 1.201.62.77 1.719.097 1.719-.336 0-.433-.248-1.346-1.115-1.73-.867-.385-1.874.047-1.982.865zM47.088 24.338c-.69-.456-.725.489-1.69.705-.967.216-.842 1.494-.452 1.685.39.19 1.324.37 2.052-.237.729-.607.78-1.697.09-2.153zM46.562 5.8c.484-.267 1.386-1.047 1.395-2.04.01-.991-.963-1.6-1.93-1.19-.967.412-.116.929-.676 1.943s.726 1.555 1.21 1.288zM10.54 23.943c-.404.158-1.169.72-1.213 1.664-.044.944.728 1.72 1.532 1.522.805-.197.129-.86.623-1.715.494-.854-.536-1.628-.941-1.47zM53.73 33.03c-.406.158-1.17.72-1.214 1.664-.044.944.727 1.719 1.532 1.522.804-.198.128-.861.622-1.716.494-.854-.536-1.628-.94-1.47zM46.272 35.729c-.253.775.505 1.299 1.62 1.822 1.116.524 1.643-.943.948-1.927-.695-.985-1.453-.974-1.747-.9-.295.073-.569.23-.821 1.005zM34.707 5.73c.997-.721-.003-1.8-1.188-1.635-1.186.165-1.55.813-1.63 1.095-.083.282-.082.582.459 1.131.54.549 1.362.131 2.359-.59zM18.477 9.535c1.45-.144 1.087-1.947-.217-2.524s-2.065-.108-2.319.144c-.253.253-.435.577-.217 1.515.217.937 1.304 1.01 2.753.865zM27.243 11.658c1.032.516 1.559-.844.932-1.781-.626-.938-1.336-.946-1.613-.884-.278.062-.538.202-.792.922-.255.719.442 1.227 1.473 1.743z"/>
            <path fill="#000" d="M0 42.792h22.173v1H0zM7.596 15.244h15.447v1H7.596zM44.456 19.283h15.446v1H44.456zM44.128 41.783h13.26v1h-13.26zM34.708 48.561h13.26v1h-13.26z"/>
        </g>
        <ellipse cx="1.537" cy="1.462" fill="#000" fill-rule="nonzero" rx="1" ry="1" transform="rotate(-124.125 49.09 17.288)"/>
    </g>
</svg>