<svg xmlns="http://www.w3.org/2000/svg" xmlns:xlink="http://www.w3.org/1999/xlink" width="244" height="70" viewBox="0 0 244 70">
    <defs>
        <linearGradient id="b" x1="19.215%" x2="69.302%" y1="-35.157%" y2="93.537%">
            <stop offset="0%" stop-color="#19A3B4"/>
            <stop offset="34.817%" stop-color="#5BC3AF"/>
            <stop offset="92.234%" stop-color="#C8F7A6"/>
            <stop offset="100%" stop-color="#D7FEA5"/>
        </linearGradient>
        <path id="a" d="M22.49 11.109L2.894.332C2.34.028 1.827-.043 1.412.087l16.05 16.052 5.027-5.03"/>
        <linearGradient id="c" x1="-14.698%" x2="74.844%" y1="-114.322%" y2="114.156%">
            <stop offset="0%" stop-color="#FC227C"/>
            <stop offset="100%" stop-color="#FEEB7B"/>
        </linearGradient>
        <linearGradient id="e" x1="28.151%" x2="48.188%" y1="-14.814%" y2="82.894%">
            <stop offset="0%" stop-color="#0E4DA0"/>
            <stop offset="100%" stop-color="#6BFED4"/>
        </linearGradient>
        <path id="d" d="M1.411.087C.815.273.43.877.43 1.79l.003 28.736c0 .903.374 1.498.953 1.696l16.076-16.08L1.412.087"/>
        <linearGradient id="g" x1="132.245%" x2="5.959%" y1="16.466%" y2="126.31%">
            <stop offset="0%" stop-color="#FC472E"/>
            <stop offset=".332%" stop-color="#FC472F"/>
            <stop offset="100%" stop-color="#893CD8"/>
        </linearGradient>
        <path id="f" d="M1.386 32.222c.417.142.94.075 1.51-.237l19.616-10.791-5.05-5.052-16.076 16.08"/>
    </defs>
    <g fill="none" fill-rule="evenodd">
        <rect width="243.399" height="70" fill="#444" rx="10"/>
        <g transform="translate(23.189 18.43)">
            <use fill="url(#b)" xlink:href="#a"/>
            <path fill="url(#c)" d="M22.515 21.194l6.689-3.68c1.356-.748 1.356-1.966 0-2.713L22.49 11.11l-5.028 5.03 5.053 5.055"/>
            <use fill="url(#e)" xlink:href="#d"/>
            <use fill="url(#g)" xlink:href="#f"/>
        </g>
        <path fill="#FFF" d="M75.566 30.74c3.034 0 4.939-2.184 4.939-4.914 0-2.7-1.905-4.928-4.939-4.928h-3.12v9.841h3.12zm0-.768h-2.285v-8.307h2.285c2.594 0 4.06 1.86 4.06 4.161 0 2.302-1.48 4.146-4.06 4.146zm11.4.944c2.858 0 4.748-2.213 4.748-5.09s-1.89-5.09-4.747-5.09c-2.872 0-4.748 2.213-4.748 5.09s1.876 5.09 4.748 5.09zm0-.767c-2.359 0-3.868-1.844-3.868-4.323 0-2.493 1.51-4.323 3.869-4.323 2.344 0 3.868 1.83 3.868 4.323 0 2.479-1.524 4.323-3.868 4.323zm15.24.59l2.784-9.841h-.938l-2.359 8.66-2.388-8.66h-.762l-2.403 8.66-2.36-8.66h-.937l2.798 9.841h.938l2.345-8.454 2.344 8.454h.938zm12.089 0v-9.841h-.835v8.336l-6.125-8.336h-.85v9.841h.835v-8.454l6.154 8.454h.82zm7.81 0v-.767h-4.733v-9.074h-.85v9.841h5.583zm6.096.177c2.857 0 4.747-2.213 4.747-5.09s-1.89-5.09-4.747-5.09c-2.872 0-4.748 2.213-4.748 5.09s1.876 5.09 4.748 5.09zm0-.767c-2.36 0-3.869-1.844-3.869-4.323 0-2.493 1.51-4.323 3.869-4.323 2.344 0 3.868 1.83 3.868 4.323 0 2.479-1.524 4.323-3.868 4.323zm14.858.59l-4-9.841h-1.04l-4.001 9.841h.967l.967-2.42h5.173l.967 2.42h.967zm-2.213-3.187h-4.615l2.315-5.754 2.3 5.754zm6.77 3.187c3.033 0 4.938-2.183 4.938-4.913 0-2.7-1.905-4.928-4.938-4.928h-3.12v9.841h3.12zm0-.767h-2.286v-8.307h2.286c2.594 0 4.06 1.86 4.06 4.161 0 2.302-1.48 4.146-4.06 4.146zm11.65.767v-4.662h5.26v-.767h-5.26v-3.645h5.363v-.767h-6.199v9.841h.835zm13.847 0l-2.828-4.131c1.465-.059 2.71-1.048 2.71-2.833 0-1.8-1.289-2.877-2.974-2.877h-3.649v9.841h.836v-4.072h2.154l2.74 4.072h1.01zm-3.165-4.84h-2.74v-4.234h2.74c1.304 0 2.168.87 2.168 2.11 0 1.24-.864 2.125-2.168 2.125zm9.51 5.017c2.857 0 4.747-2.213 4.747-5.09s-1.89-5.09-4.747-5.09c-2.872 0-4.748 2.213-4.748 5.09s1.876 5.09 4.748 5.09zm0-.767c-2.36 0-3.869-1.844-3.869-4.323 0-2.493 1.51-4.323 3.869-4.323 2.344 0 3.868 1.83 3.868 4.323 0 2.479-1.524 4.323-3.868 4.323zm15.957.59v-9.841h-1.26l-3.312 8.189-3.326-8.189h-1.246v9.841h.836V21.96l3.575 8.78h.322l3.561-8.78v8.78h.85zM76.944 48.437c1.758 0 3.15-.723 4.147-1.844v-3.777h-4.66v1.83h2.579v1.18c-.396.369-1.202.752-2.066.752-1.788 0-3.077-1.372-3.077-3.231 0-1.86 1.29-3.231 3.077-3.231 1.026 0 1.86.59 2.315 1.283l1.714-.944c-.732-1.166-2.007-2.198-4.03-2.198-2.871 0-5.216 1.977-5.216 5.09 0 3.098 2.345 5.09 5.217 5.09zm10.448 0c2.945 0 5.099-2.124 5.099-5.09 0-2.966-2.154-5.09-5.1-5.09-2.96 0-5.113 2.124-5.113 5.09 0 2.966 2.154 5.09 5.114 5.09zm0-1.859c-1.817 0-2.975-1.401-2.975-3.231 0-1.844 1.158-3.231 2.975-3.231 1.802 0 2.96 1.387 2.96 3.231 0 1.83-1.158 3.231-2.96 3.231zm11.21 1.86c2.945 0 5.099-2.125 5.099-5.091s-2.154-5.09-5.1-5.09c-2.96 0-5.114 2.124-5.114 5.09 0 2.966 2.154 5.09 5.114 5.09zm0-1.86c-1.818 0-2.975-1.401-2.975-3.231 0-1.844 1.157-3.231 2.974-3.231 1.803 0 2.96 1.387 2.96 3.231 0 1.83-1.157 3.231-2.96 3.231zm11.312 1.86c1.758 0 3.15-.724 4.146-1.845v-3.777h-4.66v1.83h2.58v1.18c-.396.369-1.202.752-2.066.752-1.788 0-3.078-1.372-3.078-3.231 0-1.86 1.29-3.231 3.078-3.231 1.025 0 1.86.59 2.315 1.283l1.714-.944c-.733-1.166-2.007-2.198-4.03-2.198-2.872 0-5.216 1.977-5.216 5.09 0 3.098 2.344 5.09 5.217 5.09zm11.942-.178v-1.844h-4.132v-7.997h-2.096v9.841h6.228zm8.323 0v-1.844h-4.836v-2.243h4.733V42.33h-4.733v-2.066h4.836V38.42h-6.916v9.841h6.916zm7.473 0V44.75h2.491c2.11 0 3.282-1.446 3.282-3.158 0-1.726-1.157-3.172-3.282-3.172h-4.572v9.841h2.081zm2.198-5.356h-2.198v-2.64h2.198c.82 0 1.45.5 1.45 1.327 0 .812-.63 1.313-1.45 1.313zm11.02 5.356v-1.844h-4.133v-7.997h-2.095v9.841h6.227zm10.52 0l-3.766-9.841h-2.608l-3.766 9.841h2.36l.615-1.667h4.19l.616 1.667h2.36zm-3.546-3.511h-3.048l1.524-4.235 1.524 4.235zm9.26 3.511v-4.028l3.738-5.813h-2.36l-2.417 3.94-2.418-3.94h-2.374l3.751 5.813v4.028h2.08zm11.9.177c2.622 0 3.912-1.357 3.912-3.157 0-3.674-5.612-2.626-5.612-4.176 0-.59.498-.974 1.377-.974.996 0 2.051.34 2.843 1.078l1.157-1.564c-.967-.9-2.256-1.373-3.81-1.373-2.3 0-3.707 1.358-3.707 2.996 0 3.703 5.627 2.508 5.627 4.22 0 .575-.542 1.091-1.7 1.091a4.28 4.28 0 0 1-3.106-1.342l-1.143 1.637c.923.93 2.271 1.564 4.161 1.564zm9.656-.177v-7.997h2.843V38.42h-7.796v1.844h2.857v7.997h2.096zm8.821.177c2.945 0 5.1-2.124 5.1-5.09 0-2.966-2.155-5.09-5.1-5.09-2.96 0-5.114 2.124-5.114 5.09 0 2.966 2.154 5.09 5.114 5.09zm0-1.859c-1.817 0-2.975-1.401-2.975-3.231 0-1.844 1.158-3.231 2.975-3.231 1.802 0 2.96 1.387 2.96 3.231 0 1.83-1.158 3.231-2.96 3.231zm14.492 1.682l-2.213-3.747c1.055-.251 2.154-1.196 2.154-2.922 0-1.83-1.26-3.172-3.297-3.172h-4.571v9.841h2.08v-3.497h1.524l1.92 3.497h2.403zm-3.649-5.34h-2.198v-2.657h2.198c.821 0 1.451.502 1.451 1.313 0 .841-.63 1.343-1.45 1.343zm12.06 5.34v-1.844h-4.836v-2.243h4.733V42.33h-4.733v-2.066h4.836V38.42h-6.916v9.841h6.916z"/>
    </g>
</svg>