<svg width="90" height="90" xmlns="http://www.w3.org/2000/svg">

 <g>
  <title>background</title>
  <rect fill="none" id="canvas_background" height="92" width="92" y="-1" x="-1"/>
 </g>
 <g>
  <title>Layer 1</title>
  <g id="svg_1" fill-rule="evenodd" fill="none">
   <path id="svg_2" d="m10.522501,61.576498l-4.36,0c-3.21,0 -5.81,-2.64 -5.81,-5.893l0,-21.146c0,-3.253 2.6,-5.89 5.81,-5.89l4.36,0l0,32.929zm18.305,-7.528l30.924,0l0,-16.935l-30.924,0l0,16.935z" fill="#B3B3B3"/>
   <path id="svg_3" d="m27.238501,70.815498l-12.843,0c-2.14,0 -3.872,-1.76 -3.872,-3.928l0,-43.776c0,-2.168 1.733,-3.927 3.872,-3.927l12.843,0c2.137,0 3.873,1.76 3.873,3.927l0,43.776c0,2.168 -1.736,3.928 -3.873,3.928m35.524,0l12.842,0c2.14,0 3.873,-1.76 3.873,-3.928l0,-43.776c0,-2.168 -1.733,-3.927 -3.873,-3.927l-12.842,0c-2.138,0 -3.873,1.76 -3.873,3.927l0,43.776c0,2.168 1.735,3.928 3.873,3.928" fill="#444"/>
   <path id="svg_4" d="m79.476501,61.576498l4.361,0c3.209,0 5.81,-2.64 5.81,-5.892l0,-21.147c0,-3.253 -2.601,-5.89 -5.81,-5.89l-4.36,0l0,32.929l-0.001,0z" fill="#B3B3B3"/>
  </g>
 </g>
</svg>