<svg xmlns="http://www.w3.org/2000/svg" width="220" height="70" viewBox="0 0 220 70">
    <g fill="none" fill-rule="evenodd">
        <rect width="220" height="70" fill="#444" rx="10"/>
        <g fill="#FFF">
            <path d="M74.665 30.574c3.034 0 4.938-2.184 4.938-4.914 0-2.7-1.904-4.928-4.938-4.928h-3.12v9.842h3.12zm0-.768H72.38V21.5h2.286c2.594 0 4.06 1.859 4.06 4.16 0 2.302-1.48 4.146-4.06 4.146zm11.4.945c2.858 0 4.748-2.214 4.748-5.09 0-2.878-1.89-5.091-4.747-5.091-2.873 0-4.748 2.213-4.748 5.09s1.875 5.09 4.748 5.09zm0-.768c-2.359 0-3.868-1.844-3.868-4.323 0-2.493 1.51-4.323 3.869-4.323 2.344 0 3.868 1.83 3.868 4.323 0 2.48-1.524 4.323-3.868 4.323zm15.24.59l2.784-9.84h-.938l-2.359 8.66-2.388-8.66h-.762l-2.404 8.66-2.359-8.66h-.938l2.8 9.84h.937l2.345-8.454 2.344 8.455h.938zm12.089 0v-9.84h-.836v8.336l-6.125-8.337h-.85v9.842h.836v-8.455l6.154 8.455h.82zm7.81 0v-.767h-4.733v-9.074h-.85v9.842h5.583zm6.096.178c2.857 0 4.747-2.214 4.747-5.09 0-2.878-1.89-5.091-4.747-5.091-2.872 0-4.748 2.213-4.748 5.09s1.876 5.09 4.748 5.09zm0-.768c-2.36 0-3.869-1.844-3.869-4.323 0-2.493 1.51-4.323 3.869-4.323 2.344 0 3.868 1.83 3.868 4.323 0 2.48-1.524 4.323-3.868 4.323zm14.858.59l-4-9.84h-1.04l-4.001 9.84h.967l.967-2.42h5.173l.967 2.42h.967zm-2.213-3.186h-4.615l2.315-5.755 2.3 5.755zm6.77 3.187c3.033 0 4.938-2.184 4.938-4.914 0-2.7-1.905-4.928-4.938-4.928h-3.121v9.842h3.121zm0-.768h-2.286V21.5h2.286c2.594 0 4.059 1.859 4.059 4.16 0 2.302-1.48 4.146-4.059 4.146zm11.65.768V25.91h5.26v-.767h-5.26V21.5h5.362v-.768h-6.198v9.842h.835zm13.847 0l-2.828-4.132c1.465-.059 2.71-1.047 2.71-2.833 0-1.8-1.289-2.877-2.974-2.877h-3.649v9.842h.835V26.5h2.154l2.74 4.073h1.012zm-3.165-4.84h-2.74V21.5h2.74c1.304 0 2.168.87 2.168 2.11 0 1.239-.864 2.124-2.168 2.124zm9.51 5.017c2.857 0 4.747-2.214 4.747-5.09 0-2.878-1.89-5.091-4.748-5.091-2.872 0-4.747 2.213-4.747 5.09s1.875 5.09 4.748 5.09zm0-.768c-2.36 0-3.869-1.844-3.869-4.323 0-2.493 1.51-4.323 3.869-4.323 2.344 0 3.868 1.83 3.868 4.323 0 2.48-1.524 4.323-3.869 4.323zm15.957.59v-9.84h-1.26l-3.312 8.188-3.326-8.189h-1.246v9.842h.835v-8.78l3.576 8.78h.322l3.56-8.78v8.78h.85zM80.409 48.096l-3.765-9.842h-2.609l-3.766 9.842h2.36l.615-1.668h4.19l.616 1.668h2.36zm-3.546-3.512h-3.048l1.524-4.235 1.524 4.235zm6.536 3.512v-3.512h2.49c2.11 0 3.283-1.446 3.283-3.158 0-1.726-1.158-3.172-3.282-3.172h-4.572v9.842h2.08zm2.198-5.356h-2.198v-2.641h2.198c.82 0 1.45.501 1.45 1.327 0 .812-.63 1.314-1.45 1.314zm6.96 5.356v-3.512h2.49c2.111 0 3.283-1.446 3.283-3.158 0-1.726-1.157-3.172-3.282-3.172h-4.572v9.842h2.08zm2.198-5.356h-2.198v-2.641h2.198c.82 0 1.45.501 1.45 1.327 0 .812-.63 1.314-1.45 1.314zm11.02 5.356V46.25h-4.133v-7.997h-2.096v9.842h6.228zm8.322 0V46.25h-4.835v-2.242h4.733v-1.845h-4.733v-2.065h4.835v-1.845h-6.916v9.842h6.916zm14.507 0l-3.766-9.842h-2.608l-3.766 9.842h2.359l.615-1.668h4.191l.616 1.668h2.359zm-3.546-3.512h-3.048l1.524-4.235 1.524 4.235zm6.535 3.512v-3.512h2.491c2.11 0 3.282-1.446 3.282-3.158 0-1.726-1.157-3.172-3.282-3.172h-4.572v9.842h2.081zm2.198-5.356h-2.198v-2.641h2.198c.82 0 1.45.501 1.45 1.327 0 .812-.63 1.314-1.45 1.314zm6.96 5.356v-3.512h2.491c2.11 0 3.283-1.446 3.283-3.158 0-1.726-1.158-3.172-3.283-3.172h-4.572v9.842h2.081zm2.198-5.356h-2.198v-2.641h2.198c.82 0 1.45.501 1.45 1.327 0 .812-.63 1.314-1.45 1.314zm12.133 5.533c2.623 0 3.912-1.358 3.912-3.158 0-3.674-5.612-2.626-5.612-4.175 0-.59.499-.974 1.378-.974.996 0 2.051.34 2.842 1.077l1.158-1.564c-.967-.9-2.257-1.372-3.81-1.372-2.3 0-3.707 1.357-3.707 2.995 0 3.703 5.627 2.508 5.627 4.22 0 .575-.542 1.092-1.7 1.092a4.28 4.28 0 0 1-3.106-1.343l-1.143 1.638c.923.93 2.27 1.564 4.161 1.564zm9.657-.177v-7.997h2.842v-1.845h-7.795v1.845h2.857v7.997h2.096zm8.82.177c2.946 0 5.1-2.125 5.1-5.09 0-2.966-2.154-5.091-5.1-5.091-2.96 0-5.113 2.125-5.113 5.09 0 2.966 2.154 5.09 5.114 5.09zm0-1.86c-1.816 0-2.974-1.401-2.974-3.23 0-1.845 1.158-3.232 2.975-3.232 1.802 0 2.96 1.387 2.96 3.231 0 1.83-1.158 3.232-2.96 3.232zm14.493 1.683l-2.213-3.748c1.055-.25 2.154-1.195 2.154-2.922 0-1.83-1.26-3.172-3.297-3.172h-4.572v9.842h2.081v-3.497h1.524l1.92 3.497h2.403zm-3.649-5.342h-2.198v-2.655h2.198c.82 0 1.45.501 1.45 1.313 0 .84-.63 1.342-1.45 1.342zm12.06 5.342V46.25h-4.836v-2.242h4.733v-1.845h-4.733v-2.065h4.836v-1.845h-6.917v9.842h6.917zM40.558 24.513c-1.048 1.352-2.855 2.4-4.6 2.346-.319-1.743.5-3.537 1.49-4.746 1.093-1.332 2.963-2.354 4.563-2.465.27 1.822-.474 3.603-1.453 4.865zm8.647 17.122c-.7 1.56-1.036 2.257-1.939 3.636-1.258 1.925-3.033 4.321-5.231 4.342-1.955.018-2.456-1.277-5.108-1.263-2.651.015-3.205 1.286-5.16 1.268-2.198-.02-3.88-2.185-5.14-4.11-3.52-5.382-3.888-11.7-1.717-15.058 1.544-2.387 3.978-3.783 6.267-3.783 2.33 0 3.796 1.283 5.722 1.283 1.87 0 3.009-1.286 5.703-1.286 2.037 0 4.195 1.115 5.733 3.04-5.039 2.773-4.22 10 .87 11.931z"/>
        </g>
    </g>
</svg>