<svg xmlns="http://www.w3.org/2000/svg" xmlns:xlink="http://www.w3.org/1999/xlink" width="90" height="90" viewBox="0 0 90 90">
    <defs>
        <path id="a" d="M0 .502v63.094h89.925V.502z"/>
        <path id="c" d="M0 20.076V.089h89.925v19.987z"/>
    </defs>
    <g fill="none" fill-rule="evenodd">
        <g transform="translate(0 27.61)">
            <mask id="b" fill="#fff">
                <use xlink:href="#a"/>
            </mask>
            <path fill="#FFD400" d="M87.97 64.094H1.956A1.958 1.958 0 0 1 0 62.137V1h89.926v61.137c0 1.08-.877 1.957-1.957 1.957" mask="url(#b)"/>
            <path fill="#FFF" d="M22.576 26.902c-.052-.182-.099-.474-.138-.877-.04-.403-.06-.786-.06-1.15 0-1.22.224-2.39.672-3.507a8.632 8.632 0 0 1 1.973-2.961c.868-.858 1.94-1.54 3.217-2.046 1.276-.507 2.743-.76 4.4-.76 1.579 0 3 .24 4.263.72 1.263.482 2.328 1.124 3.196 1.93a8.4 8.4 0 0 1 2.013 2.845 8.523 8.523 0 0 1 .71 3.429c0 1.792-.473 3.41-1.42 4.851-.947 1.442-2.29 2.683-4.026 3.722l-5.367 3.195c-.5.286-.94.611-1.322.975a3.747 3.747 0 0 0-.888 1.325H43.02v5.222H22.181c0-1.248.106-2.43.316-3.547a11.37 11.37 0 0 1 1.086-3.156 11.907 11.907 0 0 1 2.032-2.786c.842-.87 1.895-1.67 3.157-2.397l4.579-2.728c1.157-.675 1.98-1.364 2.466-2.065.487-.702.73-1.533.73-2.494 0-.961-.335-1.8-1.006-2.514-.67-.714-1.677-1.071-3.02-1.071-1.446 0-2.518.422-3.216 1.266-.697.844-1.046 1.877-1.046 3.098 0 .286.027.559.08.818.052.26.105.533.157.819l-5.92-.156zm28.337.546l7.144-6.08H46.059v-5.183H65.95v4.872l-7.143 5.767a8.782 8.782 0 0 1 3.039.701 8.194 8.194 0 0 1 2.565 1.715 8.114 8.114 0 0 1 1.756 2.611c.434 1.013.652 2.143.652 3.39a8.46 8.46 0 0 1-.73 3.45 8.691 8.691 0 0 1-2.112 2.922c-.921.844-2.052 1.52-3.394 2.026-1.342.507-2.855.76-4.539.76-1.631 0-3.098-.24-4.4-.72-1.303-.482-2.415-1.118-3.335-1.91a9.025 9.025 0 0 1-2.19-2.787 9.178 9.178 0 0 1-.968-3.351l6-1.17c.052 1.352.519 2.469 1.4 3.352.882.884 2.033 1.325 3.454 1.325 1.447 0 2.558-.396 3.335-1.188.776-.793 1.164-1.747 1.164-2.865 0-.701-.125-1.305-.375-1.812a3.695 3.695 0 0 0-1.007-1.266 4.145 4.145 0 0 0-1.4-.74 5.468 5.468 0 0 0-1.599-.234c-.447 0-.888.065-1.322.195-.434.13-.81.272-1.125.428l-2.763-4.208z" mask="url(#b)" opacity=".7"/>
        </g>
        <g transform="translate(0 8.036)">
            <mask id="d" fill="#fff">
                <use xlink:href="#c"/>
            </mask>
            <path fill="#5857D7" d="M87.969.089H1.956C.876.089-.001.964-.001 2.046v18.03h89.926V2.046A1.956 1.956 0 0 0 87.97.089" mask="url(#d)"/>
        </g>
        <path fill="#4342BF" d="M23.144 20.172h-4.257a1.955 1.955 0 0 1-1.957-1.958V1.958C16.93.878 17.805 0 18.887 0h4.257c1.08 0 1.957.877 1.957 1.958v16.256a1.956 1.956 0 0 1-1.957 1.958M70.048 20.172h-4.257a1.955 1.955 0 0 1-1.957-1.958V1.958C63.834.878 64.71 0 65.791 0h4.257c1.08 0 1.957.877 1.957 1.958v16.256a1.956 1.956 0 0 1-1.957 1.958"/>
    </g>
</svg>