<svg xmlns="http://www.w3.org/2000/svg" width="486" height="165" viewBox="0 0 486 165">
    <path fill="#FFF" fill-rule="evenodd" d="M46.2 71V53.8H19.7V1.3H.7V71h45.5zm59.9 0V54.2H72.9V43.6h30.2V28H72.9v-9.6h32.4V1.3H53.9V71h52.2zm42.3 0V18.5h18.4V1.3h-56.2v17.2h18.8V71h19zm35.3-45.8l12.6-23.9h-17.1l-8.7 23.9h13.2zm15.6 41.2c6.9 3.7 15.4 5.6 25.4 5.6 19.5 0 29-8.5 29-22.1 0-5.2-1.3-9.3-3.8-12.4-2.5-3.1-7.2-5.6-13.9-7.7-.8-.3-2.3-.7-4.6-1.3l-5.1-1.4c-1.1-.4-2.5-.9-4-1.6-3.1-1.3-4.4-2.8-4.4-4.5 0-2.5 3.2-3.8 9.7-3.8 8 0 14.6 1.8 19.9 5.5V5C241.6 1.9 234.7.3 226.6.3c-7.4 0-13.7 1.8-19 5.5-5.2 3.7-7.8 8.8-7.8 15.3 0 9.3 5 15.9 15.1 19.6 2 .7 5 1.7 9.1 2.9s7 2.2 8.7 3.1c1.7.9 2.5 1.9 2.5 3.2 0 3.4-3.8 5.1-11.3 5.1-9.7 0-17.9-2.5-24.6-7.6v19zM332.3.3c-10.6 0-19.6 3.4-27 10.3-7.3 6.8-11 15.3-11 25.6s3.7 18.8 11 25.6c7.4 6.8 16.4 10.2 27 10.2 12.9 0 24.4-6.2 30.9-15.5v-28h-34.4v15.8h18V49c-3.5 4-8.3 6-14.5 6-5.3 0-9.8-1.8-13.5-5.3-3.7-3.6-5.5-8.1-5.5-13.5s1.8-9.9 5.5-13.5c3.7-3.6 8.2-5.4 13.5-5.4 8.2 0 15.3 2.2 21.4 6.6v-18c-6-3.7-13.1-5.6-21.4-5.6zM424.6 71V54.2h-33.2V43.6h30.2V28h-30.2v-9.6h32.4V1.3h-51.4V71h52.2zm42.3 0V18.5h18.4V1.3h-56.2v17.2h18.8V71h19zM18.4 161v-31.5l20.5 20.8 20.5-20.8V161h17.7V88.6l-38.2 38.1L.7 88.6V161h17.7zm144.3-34.6c0 9.9-3.8 18.4-11.3 25.5-7.5 7-16.5 10.5-27.2 10.5s-19.7-3.5-27.2-10.5c-7.5-7.1-11.2-15.6-11.2-25.5S89.5 108 97 100.9c7.5-7.1 16.5-10.6 27.2-10.6s19.7 3.5 27.2 10.6c7.5 7 11.3 15.5 11.3 25.5zm-57.5 0c0 5.3 1.8 9.8 5.5 13.5 3.7 3.7 8.2 5.5 13.5 5.5 5.2 0 9.7-1.9 13.4-5.6 3.8-3.8 5.7-8.3 5.7-13.4s-1.9-9.6-5.7-13.4c-3.7-3.8-8.2-5.7-13.4-5.7-5.2 0-9.7 1.9-13.4 5.7-3.7 3.7-5.6 8.2-5.6 13.4zM237 91.3l-38.7 73.5-38.5-73.5h20.5l18 35.5 18.2-35.5H237zm25.2 69.7V91.3h-19V161h19zm30 0v-35.2l46.2 38V91.3h-18.2v34.9L274 88.5V161h18.2zm92.9-70.7c-10.6 0-19.6 3.4-27 10.3-7.3 6.8-11 15.3-11 25.6s3.7 18.8 11 25.6c7.4 6.8 16.4 10.2 27 10.2 12.9 0 24.4-6.2 30.9-15.5v-28h-34.4v15.8h18v4.7c-3.5 4-8.3 6-14.5 6-5.3 0-9.8-1.8-13.5-5.3-3.7-3.6-5.5-8.1-5.5-13.5s1.8-9.9 5.5-13.5c3.7-3.6 8.2-5.4 13.5-5.4 8.2 0 15.3 2.2 21.4 6.6v-18c-6-3.7-13.1-5.6-21.4-5.6zm38.8 68.9c3.9 3.7 10 3.7 13.7 0 3.9-3.7 3.9-9.9 0-13.6-3.7-3.7-9.8-3.7-13.7 0-3.7 3.7-3.7 9.9 0 13.6z"/>
</svg>
