<svg xmlns="http://www.w3.org/2000/svg" width="108" height="35" viewBox="0 0 108 35">
    <defs>
        <linearGradient id="a" x1="-223.607%" x2="333.434%" y1="59.222%" y2="59.222%">
            <stop offset="0%" stop-color="#00BAC6"/>
            <stop offset="100%" stop-color="#433085"/>
        </linearGradient>
        <linearGradient id="b" x1="-292.043%" x2="254.436%" y1="59.222%" y2="59.222%">
            <stop offset="0%" stop-color="#00BAC6"/>
            <stop offset="100%" stop-color="#433085"/>
        </linearGradient>
        <linearGradient id="c" x1="-1099.525%" y1="50%" y2="59.222%">
            <stop offset="0%" stop-color="#00BAC6"/>
            <stop offset="100%" stop-color="#433085"/>
        </linearGradient>
        <linearGradient id="d" x1="-408.025%" x2="153.376%" y1="59.222%" y2="59.222%">
            <stop offset="0%" stop-color="#00BAC6"/>
            <stop offset="100%" stop-color="#433085"/>
        </linearGradient>
        <linearGradient id="e" x1="-103.786%" x2="439.544%" y1="59.222%" y2="59.222%">
            <stop offset="0%" stop-color="#00BAC6"/>
            <stop offset="100%" stop-color="#433085"/>
        </linearGradient>
        <linearGradient id="f" x1="0%" x2="541.127%" y1="59.222%" y2="59.222%">
            <stop offset="0%" stop-color="#00BAC6"/>
            <stop offset="100%" stop-color="#433085"/>
        </linearGradient>
    </defs>
    <g fill="none" fill-rule="evenodd">
        <path fill="url(#a)" d="M57.302 19.639a4.565 4.565 0 0 1-1.652 1.57 4.42 4.42 0 0 1-2.202.585c-.78 0-1.507-.197-2.187-.585a4.565 4.565 0 0 1-1.651-1.57 3.823 3.823 0 0 1-.61-2.032l-5.33-.002v17.22h5.322v-9.19l.385.167.383.167c1.202.435 2.431.65 3.688.65 1.278 0 2.513-.215 3.704-.65a9.451 9.451 0 0 0 3.153-1.921 8.943 8.943 0 0 0 2.152-2.923 8.475 8.475 0 0 0 .78-3.518h-5.325a3.889 3.889 0 0 1-.61 2.032"/>
        <path fill="url(#b)" d="M74.719 8.581a9.698 9.698 0 0 0-3.166-1.926 10.777 10.777 0 0 0-7.384 0l-.384.167-.378.164L63.401 0h-5.317v15.174h5.322l-.001-.011h.005c0-.012-.003-.023-.003-.034 0-.78.205-1.492.617-2.138a4.577 4.577 0 0 1 1.652-1.571 4.398 4.398 0 0 1 2.186-.585c.79 0 1.523.197 2.202.585.341.194.648.42.92.677.275.261.514.555.72.882.411.646.617 1.358.617 2.137 0 1.191-.446 2.215-1.333 3.072-.847.825-1.85 1.249-3.007 1.279v4.824a10.038 10.038 0 0 0 3.572-.68 9.533 9.533 0 0 0 3.152-1.919 9.233 9.233 0 0 0 2.166-2.938c.506-1.088.759-2.285.765-3.591h.018l.002-.034c0-1.291-.261-2.5-.785-3.625a8.94 8.94 0 0 0-2.152-2.923"/>
        <path fill="url(#c)" d="M106.5 7.351c-5.024.25-7.536 2.862-7.536 7.835v10.832h5.456V15.186c0-1.877.935-2.844 2.32-2.901h1.175V7.351h-1.416z"/>
        <path fill="url(#d)" d="M88.395 12.676c1.167 0 2.224.483 2.996 1.264h-5.992a4.201 4.201 0 0 1 2.996-1.264zm9.619 4.382c0-5.37-4.315-9.737-9.62-9.737-5.303 0-9.618 4.367-9.618 9.737 0 5.368 4.315 9.736 9.619 9.736 4.455 0 8.298-3.057 9.348-7.434l-5.202-1.25c-.47 1.96-2.175 3.329-4.146 3.329-2.354 0-4.27-1.966-4.27-4.381 0-.009.001.007.001 0h13.888z"/>
        <path fill="url(#e)" d="M35.82 16.585c-.016 1.189-.469 2.213-1.36 3.073-.898.877-1.967 1.315-3.206 1.315-1.227 0-2.29-.438-3.188-1.315-.892-.86-1.345-1.884-1.362-3.073V9.648h-5.441v6.989c.01 1.729.471 3.294 1.38 4.693.91 1.423 2.137 2.54 3.684 3.347a10.36 10.36 0 0 0 4.927 1.23c1.33 0 2.592-.234 3.785-.702.272-.1.537-.213.798-.337v2.191h-.016v.17a.266.266 0 0 0-.017.086c-.013.159-.04.29-.086.393l-.035.12-.033.118-.035.085-.016.052c-.262.625-.655 1.115-1.177 1.467a3.153 3.153 0 0 1-1.842.58 3.135 3.135 0 0 1-2.233-.886 3.122 3.122 0 0 1-1.006-2.185l-4.928 2.884c.228.774.819 1.651 1.773 2.63 1.467 1.457 3.416 2.208 5.85 2.253h.903a9.583 9.583 0 0 0 3.256-.58c1.193-.433 2.132-.991 2.814-1.674 1.5-1.525 2.25-3.344 2.25-5.461V9.648H35.82v6.937z"/>
        <path fill="url(#f)" d="M14.932 8.49a10.37 10.37 0 0 0-4.927-1.23 10.3 10.3 0 0 0-3.785.701c-.272.1-.538.215-.799.337V0H.001v25.953h5.437v-9.372c.017-1.188.47-2.213 1.36-3.073.899-.875 1.968-1.313 3.207-1.313 1.227 0 2.29.438 3.187 1.313.893.86 1.346 1.885 1.363 3.073v9.372h5.44V16.53c-.01-1.73-.47-3.294-1.38-4.694-.91-1.422-2.136-2.538-3.683-3.346"/>
    </g>
</svg>