<svg xmlns="http://www.w3.org/2000/svg" width="68" height="22" viewBox="0 0 68 22">
    <g fill="#777" fill-rule="evenodd">
        <path d="M36.079 12.344a2.872 2.872 0 0 1-1.04.987 2.787 2.787 0 0 1-2.763 0 2.872 2.872 0 0 1-1.04-.987 2.4 2.4 0 0 1-.384-1.277l-3.356-.001V21.89h3.351v-5.777l.242.105.241.105c.757.274 1.531.41 2.322.41.805 0 1.583-.136 2.332-.41a5.953 5.953 0 0 0 1.986-1.207 5.622 5.622 0 0 0 1.355-1.837 5.32 5.32 0 0 0 .49-2.212h-3.352c-.012.464-.137.89-.384 1.277"/>
        <path d="M47.045 5.394a6.106 6.106 0 0 0-1.993-1.21 6.796 6.796 0 0 0-4.65 0l-.241.104-.238.103-.004-4.39h-3.348V9.537h3.351v-.007h.003l-.002-.022c0-.49.129-.937.388-1.344a2.88 2.88 0 0 1 1.04-.987 2.772 2.772 0 0 1 1.377-.367c.497 0 .959.123 1.387.367a2.865 2.865 0 0 1 1.032.98c.259.406.389.854.389 1.344 0 .748-.281 1.391-.84 1.93a2.73 2.73 0 0 1-1.893.804v3.032a6.33 6.33 0 0 0 2.249-.427 6.004 6.004 0 0 0 1.985-1.206 5.804 5.804 0 0 0 1.364-1.847 5.345 5.345 0 0 0 .48-2.257h.012l.002-.022c0-.81-.165-1.57-.495-2.278a5.62 5.62 0 0 0-1.355-1.837M67.055 4.62c-3.163.158-4.745 1.8-4.745 4.926v6.808h3.436V9.546c0-1.18.589-1.788 1.461-1.824h.74V4.621h-.892zM55.656 7.968c.735 0 1.4.304 1.886.794H53.77a2.647 2.647 0 0 1 1.886-.794zm6.056 2.754c0-3.375-2.717-6.12-6.056-6.12-3.34 0-6.056 2.745-6.056 6.12s2.717 6.12 6.056 6.12c2.805 0 5.225-1.922 5.886-4.673l-3.275-.785c-.296 1.231-1.37 2.092-2.611 2.092-1.482 0-2.689-1.236-2.689-2.754 0-.005.001.005.001 0h8.744zM22.554 10.425c-.01.747-.296 1.391-.857 1.932a2.796 2.796 0 0 1-2.019.826c-.772 0-1.442-.276-2.007-.826-.561-.54-.846-1.185-.857-1.932v-4.36h-3.426V10.457c.007 1.086.296 2.07.869 2.95a5.975 5.975 0 0 0 2.32 2.103 6.532 6.532 0 0 0 3.101.773c.837 0 1.632-.147 2.383-.44.172-.063.339-.135.503-.212v1.377h-.01v.107a.167.167 0 0 0-.01.053.774.774 0 0 1-.055.247l-.022.075-.02.075-.023.053-.01.033c-.165.393-.412.7-.741.922-.35.244-.737.365-1.16.365a1.976 1.976 0 0 1-1.406-.557 1.961 1.961 0 0 1-.633-1.373l-3.103 1.813c.143.486.516 1.037 1.117 1.652.923.916 2.15 1.388 3.682 1.417h.57c.687 0 1.37-.122 2.05-.365.75-.272 1.342-.623 1.771-1.052.945-.959 1.417-2.102 1.417-3.433V6.064h-3.424v4.361zM9.402 5.337A6.537 6.537 0 0 0 6.3 4.564c-.838 0-1.632.147-2.384.44a6.148 6.148 0 0 0-.503.212V0H0v16.314h3.424v-5.891c.01-.748.296-1.391.857-1.932A2.796 2.796 0 0 1 6.3 7.665c.772 0 1.441.276 2.006.826.562.54.847 1.184.858 1.932v5.89h3.426V10.39a5.354 5.354 0 0 0-.87-2.95 5.98 5.98 0 0 0-2.318-2.103"/>
    </g>
</svg>