<svg xmlns="http://www.w3.org/2000/svg" width="585" height="189" viewBox="0 0 585 189">
    <g fill="#484848" fill-rule="evenodd" opacity=".1">
        <path d="M310.743 106.398c-2.228 3.553-5.214 6.376-8.947 8.483-3.737 2.1-7.717 3.16-11.93 3.16-4.22 0-8.164-1.06-11.843-3.16-3.733-2.107-6.72-4.93-8.948-8.483-2.127-3.272-3.205-6.939-3.3-10.974l-28.872-.013-.004 93.038h28.832l.003-49.654 2.083.901 2.073.902c6.51 2.35 13.168 3.518 19.975 3.518 6.926 0 13.615-1.168 20.063-3.518 6.385-2.344 12.083-5.805 17.08-10.377 5.002-4.511 8.888-9.775 11.66-15.79 2.756-5.909 4.143-12.254 4.22-19.007h-28.84c-.102 3.981-1.178 7.648-3.305 10.974"/>
        <path d="M405.088 46.658c-3.808-3.44-7.974-6.25-12.502-8.428a52.416 52.416 0 0 0-4.646-1.98 58.515 58.515 0 0 0-20.05-3.518c-6.8 0-13.452 1.169-19.948 3.519l-2.083.901-2.046.889L343.78.299h-28.8l.003 81.92v.06h28.824l-.006-.06h.03c0-.065-.017-.122-.017-.187 0-4.207 1.11-8.06 3.341-11.551 2.229-3.55 5.215-6.376 8.948-8.486 3.74-2.097 7.686-3.157 11.842-3.157 4.281 0 8.251 1.06 11.93 3.157a25.788 25.788 0 0 1 4.985 3.657 24.632 24.632 0 0 1 3.896 4.768c2.228 3.488 3.344 7.337 3.344 11.545 0 6.436-2.415 11.964-7.223 16.596-4.586 4.458-10.02 6.747-16.286 6.91v26.06c6.784-.077 13.242-1.286 19.35-3.67 6.259-2.283 11.95-5.734 17.073-10.366 5.052-4.626 8.968-9.918 11.734-15.874 2.736-5.88 4.109-12.349 4.14-19.403h.1c0-.064.011-.121.011-.186 0-6.973-1.417-13.503-4.254-19.585-2.77-6.01-6.655-11.278-11.656-15.79M577.235 40.013c-27.208 1.35-40.82 15.462-40.82 42.33v58.523h29.56V82.344c0-10.144 5.062-15.364 12.569-15.675h6.36V40.013h-7.669zM479.167 68.78c6.32 0 12.049 2.613 16.228 6.83H462.94c4.18-4.217 9.908-6.83 16.228-6.83zm52.104 23.674c0-29.01-23.374-52.606-52.104-52.606s-52.103 23.596-52.103 52.606c0 29.006 23.373 52.602 52.103 52.602 24.131 0 44.952-16.515 50.636-40.163l-28.175-6.75c-2.547 10.586-11.782 17.981-22.46 17.981-12.753 0-23.13-10.62-23.13-23.67 0-.044.006.04.006 0h75.227zM194.384 89.902c-.092 6.423-2.543 11.957-7.369 16.603-4.87 4.735-10.659 7.102-17.371 7.102-6.645 0-12.407-2.367-17.266-7.102-4.833-4.646-7.284-10.18-7.376-16.603V52.421h-29.477v37.761c.06 9.34 2.553 17.8 7.48 25.356 4.927 7.689 11.572 13.72 19.951 18.08 8.37 4.43 17.27 6.644 26.688 6.644 7.203 0 14.04-1.262 20.503-3.788a51.284 51.284 0 0 0 4.325-1.82v11.835h-.088v.922a1.435 1.435 0 0 0-.092.46c-.067.86-.22 1.566-.463 2.123l-.19.645-.179.642-.192.459-.088.28c-1.417 3.38-3.544 6.024-6.374 7.929-3.013 2.093-6.344 3.137-9.976 3.137-4.677 0-8.711-1.594-12.096-4.792-3.392-3.198-5.208-7.135-5.448-11.805l-26.694 15.584c1.23 4.18 4.433 8.918 9.604 14.202 7.946 7.875 18.504 11.933 31.682 12.176h4.896c5.911 0 11.785-1.043 17.639-3.136 6.462-2.337 11.548-5.353 15.24-9.04 8.13-8.24 12.188-18.069 12.188-29.506V52.421h-29.457v37.481zM81.234 46.167c-8.373-4.427-17.27-6.642-26.687-6.642-7.203 0-14.04 1.263-20.506 3.785a52.917 52.917 0 0 0-4.325 1.82V.297H.35v140.218h29.457V89.882c.091-6.423 2.543-11.957 7.368-16.604 4.867-4.73 10.66-7.098 17.372-7.098 6.645 0 12.403 2.367 17.263 7.098 4.835 4.647 7.287 10.181 7.378 16.604v50.633h29.474v-50.91c-.057-9.344-2.55-17.799-7.476-25.36-4.927-7.685-11.572-13.716-19.952-18.078"/>
    </g>
</svg>