<svg xmlns="http://www.w3.org/2000/svg" width="99" height="32" viewBox="0 0 99 32">
    <g fill="#FFF" fill-rule="evenodd">
        <path d="M52.527 17.955a4.18 4.18 0 0 1-1.514 1.436 4.06 4.06 0 0 1-2.02.535c-.713 0-1.38-.18-2.003-.535a4.18 4.18 0 0 1-1.514-1.436 3.489 3.489 0 0 1-.559-1.857l-4.886-.002V31.84h4.879v-8.402l.353.152.35.153a9.882 9.882 0 0 0 3.38.595 9.839 9.839 0 0 0 3.396-.595 8.668 8.668 0 0 0 2.89-1.756 8.178 8.178 0 0 0 1.974-2.672c.466-1 .7-2.074.714-3.217h-4.881a3.549 3.549 0 0 1-.56 1.857"/>
        <path d="M68.492 7.846a8.89 8.89 0 0 0-2.902-1.762 9.902 9.902 0 0 0-6.768 0l-.353.153-.346.15L58.117 0h-4.873v13.873h4.878l-.001-.01h.005c0-.01-.003-.02-.003-.031 0-.712.188-1.364.566-1.955.377-.6.882-1.079 1.514-1.436a4.04 4.04 0 0 1 2.004-.534c.724 0 1.396.18 2.019.534a4.168 4.168 0 0 1 1.503 1.426c.377.59.565 1.241.565 1.953 0 1.09-.408 2.025-1.222 2.809-.776.754-1.696 1.142-2.756 1.17v4.41a9.222 9.222 0 0 0 3.274-.622 8.742 8.742 0 0 0 2.89-1.754 8.443 8.443 0 0 0 1.986-2.686c.462-.995.695-2.09.7-3.284h.017l.002-.031c0-1.18-.24-2.285-.72-3.314a8.174 8.174 0 0 0-1.973-2.672M97.624 6.721c-4.604.229-6.907 2.617-6.907 7.164v9.903h5.002v-9.903c0-1.717.856-2.6 2.127-2.653h1.076v-4.51h-1.298zM81.029 11.59c1.07 0 2.039.441 2.746 1.155h-5.493a3.856 3.856 0 0 1 2.747-1.156zm8.817 4.005c0-4.909-3.956-8.902-8.817-8.902-4.862 0-8.818 3.993-8.818 8.902 0 4.909 3.956 8.902 8.818 8.902 4.083 0 7.607-2.795 8.569-6.796l-4.769-1.143c-.43 1.792-1.993 3.043-3.8 3.043-2.158 0-3.915-1.797-3.915-4.006 0-.007.002.007.002 0h12.73zM32.836 15.164c-.016 1.087-.43 2.023-1.247 2.81-.824.8-1.804 1.201-2.94 1.201-1.124 0-2.1-.4-2.922-1.202-.818-.786-1.232-1.722-1.248-2.81V8.822h-4.988v6.39c.01 1.58.432 3.012 1.266 4.29.833 1.302 1.958 2.323 3.376 3.06a9.517 9.517 0 0 0 4.516 1.125 9.448 9.448 0 0 0 3.47-.641c.25-.091.492-.196.732-.308v2.003h-.015v.156a.243.243 0 0 0-.016.077 1.125 1.125 0 0 1-.078.36l-.032.109-.03.109-.033.077-.015.048c-.24.572-.6 1.02-1.079 1.341-.51.355-1.073.531-1.688.531-.791 0-1.474-.27-2.047-.81a2.852 2.852 0 0 1-.922-1.998l-4.517 2.637c.208.707.75 1.509 1.625 2.403 1.345 1.333 3.131 2.02 5.362 2.06h.828c1 0 1.995-.176 2.985-.53 1.094-.395 1.954-.906 2.58-1.53 1.375-1.394 2.062-3.057 2.062-4.993V8.821h-4.985v6.343zM13.688 7.762a9.525 9.525 0 0 0-4.516-1.124 9.464 9.464 0 0 0-3.47.641c-.25.09-.493.196-.732.308V0H0V23.73h4.985V15.16c.015-1.087.43-2.023 1.247-2.81.823-.8 1.804-1.2 2.94-1.2 1.124 0 2.099.4 2.921 1.2.818.787 1.233 1.723 1.249 2.81v8.569h4.987v-8.616c-.01-1.58-.431-3.012-1.265-4.291-.834-1.3-1.958-2.321-3.376-3.06"/>
    </g>
</svg>
