<svg xmlns="http://www.w3.org/2000/svg" xmlns:xlink="http://www.w3.org/1999/xlink" width="158" height="158" viewBox="0 0 158 158">
    <defs>
        <circle id="b" cx="50" cy="50" r="50"/>
        <filter id="a" width="200%" height="200%" x="-50%" y="-40%" filterUnits="objectBoundingBox">
            <feOffset dy="10" in="SourceAlpha" result="shadowOffsetOuter1"/>
            <feGaussianBlur in="shadowOffsetOuter1" result="shadowBlurOuter1" stdDeviation="15"/>
            <feColorMatrix in="shadowBlurOuter1" values="0 0 0 0 0 0 0 0 0 0 0 0 0 0 0 0 0 0 0.046705163 0"/>
        </filter>
    </defs>
    <g fill="none" fill-rule="evenodd">
        <g transform="translate(29 19)">
            <use fill="#000" filter="url(#a)" xlink:href="#b"/>
            <use fill="#FFF" xlink:href="#b"/>
        </g>
        <g fill="#000" fill-rule="nonzero">
            <path d="M73.415 91h-1.522v-5.145c-.615-.808-2.787-3.8-5.098-8.684-1.67.239-6.425.559-10.324-2.6-.888-.143-4.107-.79-5.628-2.862-.683-.932-.954-1.828-.802-2.668a2.479 2.479 0 0 1 .82-1.431l6.121-11.495c.179-.916.91-2.454 2.618-2.548.285-.017.776-.129 1.299-.248 1.631-.372 3.863-.883 5.206.196.671.537 1.01 1.373 1.01 2.48 0 1.986-.547 3.334-1.628 4.007-1.091.678-2.58.61-4.532-.216l-1.117 6.331-1.498-.268 1.468-8.314.91.459c1.845.926 3.215 1.171 3.97.707.748-.467.906-1.729.906-2.706 0-.932-.33-1.198-.437-1.285-.772-.617-2.665-.185-3.922.102-.61.14-1.139.26-1.551.283-1.004.055-1.213 1.331-1.221 1.385l-.084.248-6.344 11.919-.167.107s-.273.2-.333.58c-.065.4.119.906.532 1.468 1.346 1.832 4.78 2.28 4.816 2.286l.224.026.172.146c4.169 3.509 9.734 2.324 9.791 2.31l.597-.131.256.555c2.683 5.797 5.295 9.084 5.322 9.117l.169.209V91z"/>
            <path d="M69.55 67.533l-.232-.191c-5.322-4.366-11.005-.034-11.06.011l-.94-1.297c.063-.05 6.529-4.99 12.722-.187 1.262-.133 6.404-.875 7.792-4.202l1.436.643c-1.962 4.705-9.115 5.187-9.418 5.204l-.3.02zM74.488 76.333c-1.415 0-2.49-.16-2.592-.174l-.258-.04-3.762-4.036c-5.035 2.005-9.055-2.049-9.096-2.09L59.856 69c.148.146 3.6 3.596 7.884 1.562l.502-.238 4.139 4.442c1.009.118 4.826.461 6.867-.936v-3.978h1.484v4.663l-.261.217c-1.584 1.314-4.088 1.601-5.983 1.601z"/>
            <path d="M85.514 76.333c-1.895 0-4.402-.287-5.985-1.6l-.26-.218v-4.663h1.483v3.978c2.037 1.397 5.855 1.054 6.866.936l4.141-4.442.502.238c4.28 2.036 7.735-1.416 7.88-1.562l1.079.992c-.044.042-4.064 4.094-9.098 2.09L88.36 76.12l-.258.04c-.098.014-1.174.174-2.588.174z"/>
            <path d="M88.107 91h-1.522v-5.68l.17-.212c.023-.03 2.638-3.317 5.32-9.114l.256-.554.598.13c.057.014 5.637 1.185 9.79-2.31l.173-.145.222-.027c.036-.005 3.47-.454 4.817-2.286.42-.571.602-1.085.529-1.485a.946.946 0 0 0-.33-.562l-.167-.107-6.426-12.175c-.01-.05-.217-1.324-1.221-1.379-.414-.022-.942-.143-1.551-.282-1.254-.287-3.15-.72-3.922-.102-.107.086-.437.352-.437 1.285 0 .977.157 2.24.906 2.705.75.464 2.122.22 3.97-.707l.91-.459 1.468 8.315-1.498.267-1.117-6.33c-1.95.823-3.438.894-4.531.215-1.082-.672-1.629-2.02-1.629-4.006 0-1.109.34-1.943 1.011-2.48 1.343-1.079 3.578-.568 5.206-.196.52.12 1.013.232 1.298.248 1.712.094 2.443 1.631 2.621 2.548l6.118 11.495c.253.218.686.687.82 1.431.151.84-.118 1.736-.802 2.668-1.522 2.072-4.74 2.718-5.628 2.862-3.898 3.158-8.649 2.839-10.322 2.6-2.312 4.881-4.484 7.873-5.1 8.684V91z"/>
            <path d="M90.502 67.533l-.31-.028c-.322-.032-7.898-.816-9.46-5.274l1.462-.564c.966 2.767 5.73 3.915 7.843 4.177 6.155-4.82 12.579.144 12.646.194l-.936 1.305c-.231-.18-5.721-4.386-11-.012l-.245.202z"/>
            <path d="M80.527 63.133c-3.074 0-5.571-2.378-5.571-5.3v-1.215l-.19.215c-1.696-1.342-2.636-2.893-2.792-4.61-.25-2.746 1.623-4.87 1.703-4.96l.232-.263h17.067l-.496 1.051c-1.182 2.502-2.74 4.103-4.408 5.1h.024v4.683c0 2.92-2.499 5.3-5.569 5.3zm-4.004-8.966v3.666c0 2.1 1.796 3.81 4.004 3.81 2.207 0 4.001-1.71 4.001-3.81V53.9c-3.144 1.214-6.376.684-8.005.268zm-1.858-5.677c-.41.566-1.283 1.98-1.13 3.615.095 1.015.573 1.969 1.42 2.85v-2.912l1.081.417c.35.138 8.294 3.103 12.46-3.97H74.665z"/>
            <path d="M84.296 57.267l-.637-1.278c.365-.113 3.531-1.18 2.372-4.198l1.69-.391c1.322 3.442-1.663 5.343-3.425 5.867zM73.763 73.421h1.313v1.21h-1.313zM86.302 73.421h1.313v1.21h-1.313z"/>
        </g>
    </g>
</svg>