<svg xmlns="http://www.w3.org/2000/svg" xmlns:xlink="http://www.w3.org/1999/xlink" width="158" height="158" viewBox="0 0 158 158">
    <defs>
        <circle id="b" cx="50" cy="50" r="50"/>
        <filter id="a" width="200%" height="200%" x="-50%" y="-40%" filterUnits="objectBoundingBox">
            <feOffset dy="10" in="SourceAlpha" result="shadowOffsetOuter1"/>
            <feGaussianBlur in="shadowOffsetOuter1" result="shadowBlurOuter1" stdDeviation="15"/>
            <feColorMatrix in="shadowBlurOuter1" values="0 0 0 0 0 0 0 0 0 0 0 0 0 0 0 0 0 0 0.046705163 0"/>
        </filter>
    </defs>
    <g fill="none" fill-rule="evenodd">
        <g transform="translate(29 19)">
            <use fill="#000" filter="url(#a)" xlink:href="#b"/>
            <use fill="#FFF" xlink:href="#b"/>
        </g>
        <path fill="#000" fill-rule="nonzero" d="M106 53h-2v-5c0-1.654-1.346-3-3-3h-4c-1.654 0-3 1.346-3 3v8h-2.354l-.22-.56A6.96 6.96 0 0 0 84.911 51h-.095A2.996 2.996 0 0 0 82 49a2.98 2.98 0 0 0-2 .78 2.976 2.976 0 0 0-2-.78 2.98 2.98 0 0 0-2 .78 2.976 2.976 0 0 0-2-.78 2.98 2.98 0 0 0-2 .78 2.976 2.976 0 0 0-2-.78c-1.654 0-3 1.346-3 3v4h-3v-8c0-1.654-1.346-3-3-3h-4c-1.654 0-3 1.346-3 3v5h-2c-1.654 0-3 1.346-3 3v10c0 1.654 1.346 3 3 3h2v5c0 1.654 1.346 3 3 3h4c1.654 0 3-1.346 3-3v-8h2.268l.779 2.465c.035.112.09.217.162.311l2.669 3.453-1.71 17.966A2.563 2.563 0 0 0 70.718 93h13.556a2.562 2.562 0 0 0 2.549-2.818l-1.747-17.471a.56.56 0 0 1 .193-.482l5.487-4.703A3.54 3.54 0 0 0 91.778 66H94v8c0 1.654 1.346 3 3 3h4c1.654 0 3-1.346 3-3v-5h2c1.654 0 3-1.346 3-3V56c0-1.654-1.346-3-3-3zm-24-2c.552 0 1 .449 1 1v5.893c0 .38-.186.723-.456.923-.029.02-.056.042-.087.059-.053.031-.111.048-.169.066a.927.927 0 0 1-.198.04c-.081.006-.16 0-.238-.012-.058-.009-.116-.016-.17-.034a.979.979 0 0 1-.226-.119c-.043-.029-.09-.051-.128-.086a.994.994 0 0 1-.172-.226c-.021-.035-.051-.063-.068-.101A1.003 1.003 0 0 1 81 58v-6c0-.551.448-1 1-1zm-4 0c.552 0 1 .449 1 1v6a1.001 1.001 0 0 1-2 0v-6c0-.551.448-1 1-1zm-4 0c.552 0 1 .449 1 1v6a1.001 1.001 0 0 1-2 0v-6c0-.551.448-1 1-1zm-5 1a1.001 1.001 0 0 1 2 0v6a.996.996 0 0 1-.089.404c-.017.038-.047.066-.068.101-.049.081-.101.16-.172.226-.037.034-.084.057-.126.085a.982.982 0 0 1-.229.12c-.052.018-.109.024-.164.033-.08.012-.16.019-.243.012a.909.909 0 0 1-.196-.04c-.059-.019-.117-.036-.171-.067-.031-.016-.057-.038-.085-.058a1.16 1.16 0 0 1-.457-.924V52zM52 67c-.552 0-1-.449-1-1V56c0-.551.448-1 1-1h2v12h-2zm10 7c0 .551-.448 1-1 1h-4c-.552 0-1-.449-1-1V48c0-.551.448-1 1-1h4c.552 0 1 .449 1 1v26zm2-16h3a2.99 2.99 0 0 0 1.481 2.572c.054.033.11.06.166.09.09.046.179.092.273.128.105.042.215.072.326.101.066.017.13.039.198.052.021.004.039.012.06.016.07.012.139.005.209.012.096.009.189.029.287.029.029 0 .056-.008.084-.009.092-.003.181-.017.271-.027.12-.014.238-.03.353-.058.086-.021.168-.05.252-.078.112-.038.222-.08.328-.13a3.202 3.202 0 0 0 .525-.324c.042-.032.09-.054.13-.088l.058-.05c.058.052.126.093.188.14.062.048.122.097.188.14.094.061.195.11.296.161.067.033.13.071.199.099.116.047.239.08.361.112.062.016.12.04.184.053.189.037.383.059.583.059.2 0 .394-.022.583-.059.065-.013.124-.037.187-.054.121-.033.243-.064.358-.111.071-.029.135-.067.203-.101.1-.05.2-.099.293-.159.067-.043.127-.093.189-.141.062-.047.129-.088.187-.14.058.052.125.092.187.14.063.048.123.099.19.142.093.06.193.109.293.159.068.034.132.072.203.101.115.047.236.079.358.111.063.017.123.041.187.054.188.036.382.058.582.058.2 0 .394-.022.583-.059.063-.013.122-.036.184-.053.123-.033.245-.065.361-.112.07-.028.133-.066.2-.1.101-.05.201-.1.295-.161.066-.043.125-.092.188-.14.062-.047.13-.088.188-.14l.058.05c.04.034.088.056.129.088a3.091 3.091 0 0 0 .523.323c.11.053.223.095.34.135.079.027.157.054.238.074.122.03.247.046.373.061.084.01.166.023.251.025.03.001.058.009.089.009.1 0 .195-.02.292-.03.068-.006.136 0 .205-.011.023-.004.044-.012.067-.016.045-.009.088-.022.132-.033a2.723 2.723 0 0 0 .77-.309 2.995 2.995 0 0 0 1.46-1.958A.973.973 0 0 1 85 59v3.586L83.586 64H64v-6zm19.969 12.71a2.565 2.565 0 0 0-.883 2.201l1.747 17.471a.558.558 0 0 1-.56.618H70.718a.562.562 0 0 1-.56-.616l1.748-18.36a1.005 1.005 0 0 0-.204-.707L68.9 67.693 68.365 66h15.221A2.01 2.01 0 0 0 85 65.414L86.414 64c.378-.378.586-.88.586-1.414V59a2.996 2.996 0 0 0-2-2.816v-3.183a4.969 4.969 0 0 1 4.564 3.17l.376.945c.039.079.06.166.06.252v7.453c0 .457-.199.889-.545 1.187l-5.486 4.702zM92 64v-6h2v6h-2zm10 10c0 .551-.448 1-1 1h-4c-.552 0-1-.449-1-1V48c0-.551.448-1 1-1h4c.552 0 1 .449 1 1v26zm5-8c0 .551-.448 1-1 1h-2V55h2c.552 0 1 .449 1 1v10z"/>
    </g>
</svg>